<?xml version="1.0" encoding="UTF-8"?>
<svg xmlns="http://www.w3.org/2000/svg" version="1.1" viewBox="0 0 512 192">
  <g>
    <path fill="#737373" d="M132,192c-2.9,0-8.1,0-14.3-2.1-5.6-1.9-9.3-4.7-12.1-6.6-2.8-1.8-5.4-4-7.5-6.6-3.6-4.1-6.9-8.7-10.1-13.1-6.2-8.6-12.3-17.3-18.4-25.9-5.2-7.4-10.4-14.7-15.6-22-3.6-5.1-7.2-10.2-10.9-15.3-2.4-3.3-4.7-6.9-7.5-9.9-3.2-3.4-7.3-5.5-12.1-5.6-2.4,0-4.7.2-6.8.8-2.9.8-4.5,2.2-14.3,10.4-.8.6-1.9,1.6-2.6,2.2.3-.3.7-.9,1.2-1.6,2.7-3.6,4.6-6.4,5.5-7.6,4.8-6.7,9.5-13.2,14.2-19.9,3.6-5.1,7.1-10.3,10.7-15.4,5.2-7.4,10.5-14.8,15.7-22.1,5.1-7.3,10.5-14.2,17.9-19.4,8.5-5.9,17.6-9,28-8.2,5.8.4,11.1,2,16.3,4.5,7.1,3.4,12.9,8.3,17.7,14.5,5.5,7.1,10.5,14.6,15.7,21.8,3.5,5,7,10,10.6,15.1,5.8,8.1,11.8,16.2,17.4,24.4,3.8,5.6,8.3,10.1,13.9,13.5,3.7,2.2,7.8,3.5,12.1,4,5.2.5,10.4-.2,15.2-2.3,6.7-2.8,12.4-7.3,16.8-13.1,4-5.4,7.7-11,11.6-16.4,3.3-4.6,6.8-9.3,10.2-14,2.6-3.6,5.1-7.5,7.7-11.1,4.5-6.4,9.1-12.7,13.7-19.1,4.2-6,9.3-10.9,15.4-14.8,5.3-3.3,11.1-5.7,17.4-6.6,4.8-.7,9.6-.7,14.2.3,9.2,1.8,17.1,6.5,23.9,13.1,4.7,4.6,8.5,9.9,12.2,15.4,4.6,6.7,9.5,13.2,14.2,19.9,3.9,5.6,7.7,11.2,11.7,16.8,3.9,5.5,8,10.7,11.7,16.3,3.3,5,7.5,8.9,12.9,11.4,5.4,2.5,11.1,3.2,16.8,2,4.5-.9,8.7-2.7,12.6-5.3,4.2-2.8,8.1-6.1,11.2-10,3.7-4.9,7.5-9.6,11.2-14.5,2.7-3.5,5.5-7.1,8.2-10.6,2.8-3.6,5.6-7.3,8.4-10.9,3.2-4.1,6.5-8.3,9.7-12.5,3.7-4.9,7.4-9.6,11.2-14.5,5.4-7,7.2-9.5,11-14.1,2.5-3,4.7-5.6,6.2-7.2-6.8,10.3-12.5,18.5-16.4,24.1-7.8,11.2-9.5,13.1-20.2,28.2-4.4,6.2-8.6,12.3-13,18.4-4.4,6.1-8.9,12.1-13.3,18.2-5.4,7.5-10.7,15-16,22.4-5,7-9.8,14.1-14.8,21.1-4,5.7-8,11.2-12,16.9-5.6,7.8-11.3,15.7-17,23.4-3.8,5.2-8.6,9.3-13.9,12.7-6.7,4.3-12.1,5.6-13.7,5.9-3.6.7-6.4.7-9.4.7s-8.7,0-14.3-2.1c-2.1-.8-3.6-1.5-5.1-2.4-4.8-2.5-9.2-5.8-13.1-9.6-5.3-5.1-9-11.3-13.3-17.2-5.9-8.1-11.6-16.3-17.4-24.5-5.9-8.4-11.9-16.7-17.7-25.1-2.9-4.2-5.8-8.5-10.2-11.2-5.8-3.6-12-6-19-5.1-3,.4-6.1.7-8.9,1.6-6.6,2.2-12.6,6.1-17.3,11.2-4.5,5-8.4,10.4-12.3,15.9-6.1,8.4-11.9,16.9-17.9,25.4-4,5.7-8.2,11.2-12.1,17-3.7,5.5-7.7,10.6-12.8,14.9-3.4,2.8-9.4,7.8-18.5,10-4.6,1.1-8.4,1.1-10.4,1.1v-.2Z"/>
  </g>
</svg>