<svg width="14" height="14" viewBox="0 0 40 40" fill="none" xmlns="http://www.w3.org/2000/svg">
<path d="M32.4956 13.3153L20.0006 25.4953L7.50556 13.3153C7.28232 13.0972 6.98263 12.9752 6.67056 12.9752C6.35848 12.9752 6.05879 13.0972 5.83556 13.3153C5.72746 13.4212 5.64159 13.5476 5.58296 13.6872C5.52434 13.8267 5.49414 13.9765 5.49414 14.1278C5.49414 14.2792 5.52434 14.429 5.58296 14.5685C5.64159 14.708 5.72746 14.8344 5.83556 14.9403L19.1281 27.9003C19.3615 28.1279 19.6746 28.2552 20.0006 28.2552C20.3265 28.2552 20.6396 28.1279 20.8731 27.9003L34.1656 14.9428C34.2744 14.8368 34.3609 14.7101 34.42 14.5701C34.4791 14.4301 34.5095 14.2798 34.5095 14.1278C34.5095 13.9759 34.4791 13.8255 34.42 13.6855C34.3609 13.5455 34.2744 13.4188 34.1656 13.3128C33.9423 13.0947 33.6426 12.9727 33.3306 12.9727C33.0185 12.9727 32.7188 13.0947 32.4956 13.3128V13.3153Z" fill="black"/>
</svg>
