<svg width="55" height="55" viewBox="0 0 55 55" fill="none" xmlns="http://www.w3.org/2000/svg">
<circle cx="27.5" cy="27.5" r="27.5" fill="#8D9DB0"/>
<path d="M23.1798 20.0899C23.1798 21.7964 21.7964 23.1798 20.0899 23.1798C18.3834 23.1798 17 21.7964 17 20.0899C17 18.3834 18.3834 17 20.0899 17C21.7964 17 23.1798 18.3834 23.1798 20.0899Z" fill="white"/>
<path d="M39 20.0899C39 21.7964 37.6166 23.1798 35.9101 23.1798C34.2036 23.1798 32.8202 21.7964 32.8202 20.0899C32.8202 18.3834 34.2036 17 35.9101 17C37.6166 17 39 18.3834 39 20.0899Z" fill="white"/>
<path d="M31.0899 20.0899C31.0899 21.7964 29.7065 23.1798 28 23.1798C26.2935 23.1798 24.9102 21.7964 24.9102 20.0899C24.9102 18.3834 26.2935 17 28 17C29.7065 17 31.0899 18.3834 31.0899 20.0899Z" fill="white"/>
<path d="M31.0899 35.9102C31.0899 37.6167 29.7065 39.0001 28 39.0001C26.2935 39.0001 24.9102 37.6167 24.9102 35.9102C24.9102 34.2037 26.2935 32.8203 28 32.8203C29.7065 32.8203 31.0899 34.2037 31.0899 35.9102Z" fill="white"/>
<path d="M31.0899 28C31.0899 29.7065 29.7065 31.0899 28 31.0899C26.2935 31.0899 24.9102 29.7065 24.9102 28C24.9102 26.2935 26.2935 24.9102 28 24.9102C29.7065 24.9102 31.0899 26.2935 31.0899 28Z" fill="white"/>
</svg>
