<svg width="805" height="74" viewBox="0 0 805 74" fill="none" xmlns="http://www.w3.org/2000/svg">
<path d="M21.3262 66.0547L35.4863 1.40625H43.9336L48.5234 6.92383L33.4355 72.5H24.1094L21.3262 66.0547ZM17.5664 1.40625L29.5293 66.543L26.4531 72.5H15.6621L0.574219 1.40625H17.5664ZM56.2871 66.2012L68.1523 1.40625H85.0957L70.0078 72.5H59.2656L56.2871 66.2012ZM50.0371 1.40625L64.5391 66.4453L61.6094 72.5H52.2832L36.8535 6.82617L41.6387 1.40625H50.0371ZM255.457 1.40625V72.5H238.367V1.40625H255.457ZM326.893 1.40625V72.5H309.803L284.656 28.2617V72.5H267.518V1.40625H284.656L309.803 45.6445V1.40625H326.893ZM379.773 1.40625V72.5H362.635V1.40625H379.773ZM422.205 1.40625L394.666 37.4414L378.553 55.0684L375.428 39.3457L385.73 23.7207L401.062 1.40625H422.205ZM401.941 72.5L383.582 40.4688L396.912 30.6543L422.205 72.5H401.941Z" fill="#B6CDFF"/>
<path d="M140.76 59.3164V72.5H102.869V59.3164H140.76ZM108.973 1.40625V72.5H91.834V1.40625H108.973ZM135.877 29.6289V42.373H102.869V29.6289H135.877ZM140.906 1.40625V14.6387H102.869V1.40625H140.906ZM176.795 42.2754H158.484L158.387 31.0449H173.23C175.9 31.0449 178.032 30.752 179.627 30.166C181.222 29.5475 182.378 28.6523 183.094 27.4805C183.842 26.3086 184.217 24.8438 184.217 23.0859C184.217 21.0677 183.842 19.4401 183.094 18.2031C182.345 16.9661 181.157 16.071 179.529 15.5176C177.934 14.9316 175.867 14.6387 173.328 14.6387H164.93V72.5H147.791V1.40625H173.328C177.723 1.40625 181.645 1.81315 185.096 2.62695C188.546 3.4082 191.476 4.61263 193.885 6.24023C196.326 7.86784 198.182 9.91862 199.451 12.3926C200.721 14.834 201.355 17.7148 201.355 21.0352C201.355 23.9323 200.737 26.6504 199.5 29.1895C198.263 31.7285 196.196 33.7956 193.299 35.3906C190.434 36.9531 186.512 37.7669 181.531 37.832L176.795 42.2754ZM176.111 72.5H154.334L160.193 59.3164H176.111C178.455 59.3164 180.327 58.9583 181.727 58.2422C183.159 57.4935 184.184 56.5169 184.803 55.3125C185.454 54.0755 185.779 52.7083 185.779 51.2109C185.779 49.388 185.47 47.8092 184.852 46.4746C184.266 45.14 183.322 44.1146 182.02 43.3984C180.717 42.6497 178.976 42.2754 176.795 42.2754H162.391L162.488 31.0449H179.725L183.729 35.5371C188.481 35.3418 192.241 36.0091 195.008 37.5391C197.807 39.069 199.809 41.0872 201.014 43.5938C202.218 46.1003 202.82 48.7207 202.82 51.4551C202.82 56.11 201.811 60 199.793 63.125C197.807 66.25 194.829 68.5938 190.857 70.1562C186.886 71.7188 181.971 72.5 176.111 72.5ZM485.193 35.5371V38.418C485.193 43.8542 484.428 48.737 482.898 53.0664C481.401 57.3633 479.269 61.0417 476.502 64.1016C473.735 67.1289 470.464 69.4564 466.688 71.084C462.911 72.679 458.745 73.4766 454.188 73.4766C449.598 73.4766 445.398 72.679 441.59 71.084C437.814 69.4564 434.526 67.1289 431.727 64.1016C428.96 61.0417 426.811 57.3633 425.281 53.0664C423.784 48.737 423.035 43.8542 423.035 38.418V35.5371C423.035 30.1009 423.784 25.2181 425.281 20.8887C426.811 16.5592 428.943 12.8809 431.678 9.85352C434.445 6.79362 437.716 4.46615 441.492 2.87109C445.301 1.24349 449.5 0.429688 454.09 0.429688C458.647 0.429688 462.814 1.24349 466.59 2.87109C470.398 4.46615 473.686 6.79362 476.453 9.85352C479.22 12.8809 481.368 16.5592 482.898 20.8887C484.428 25.2181 485.193 30.1009 485.193 35.5371ZM467.811 38.418V35.4395C467.811 31.9238 467.501 28.8314 466.883 26.1621C466.297 23.4603 465.418 21.1979 464.246 19.375C463.074 17.5521 461.626 16.1849 459.9 15.2734C458.208 14.3294 456.271 13.8574 454.09 13.8574C451.811 13.8574 449.826 14.3294 448.133 15.2734C446.44 16.1849 445.024 17.5521 443.885 19.375C442.745 21.1979 441.883 23.4603 441.297 26.1621C440.743 28.8314 440.467 31.9238 440.467 35.4395V38.418C440.467 41.901 440.743 44.9935 441.297 47.6953C441.883 50.3646 442.745 52.627 443.885 54.4824C445.057 56.3379 446.489 57.7376 448.182 58.6816C449.907 59.6257 451.909 60.0977 454.188 60.0977C456.368 60.0977 458.305 59.6257 459.998 58.6816C461.691 57.7376 463.107 56.3379 464.246 54.4824C465.418 52.627 466.297 50.3646 466.883 47.6953C467.501 44.9935 467.811 41.901 467.811 38.418ZM554.236 35.5371V38.418C554.236 43.8542 553.471 48.737 551.941 53.0664C550.444 57.3633 548.312 61.0417 545.545 64.1016C542.778 67.1289 539.507 69.4564 535.73 71.084C531.954 72.679 527.788 73.4766 523.23 73.4766C518.641 73.4766 514.441 72.679 510.633 71.084C506.857 69.4564 503.569 67.1289 500.77 64.1016C498.003 61.0417 495.854 57.3633 494.324 53.0664C492.827 48.737 492.078 43.8542 492.078 38.418V35.5371C492.078 30.1009 492.827 25.2181 494.324 20.8887C495.854 16.5592 497.986 12.8809 500.721 9.85352C503.488 6.79362 506.759 4.46615 510.535 2.87109C514.344 1.24349 518.543 0.429688 523.133 0.429688C527.69 0.429688 531.857 1.24349 535.633 2.87109C539.441 4.46615 542.729 6.79362 545.496 9.85352C548.263 12.8809 550.411 16.5592 551.941 20.8887C553.471 25.2181 554.236 30.1009 554.236 35.5371ZM536.854 38.418V35.4395C536.854 31.9238 536.544 28.8314 535.926 26.1621C535.34 23.4603 534.461 21.1979 533.289 19.375C532.117 17.5521 530.669 16.1849 528.943 15.2734C527.251 14.3294 525.314 13.8574 523.133 13.8574C520.854 13.8574 518.868 14.3294 517.176 15.2734C515.483 16.1849 514.067 17.5521 512.928 19.375C511.788 21.1979 510.926 23.4603 510.34 26.1621C509.786 28.8314 509.51 31.9238 509.51 35.4395V38.418C509.51 41.901 509.786 44.9935 510.34 47.6953C510.926 50.3646 511.788 52.627 512.928 54.4824C514.1 56.3379 515.532 57.7376 517.225 58.6816C518.95 59.6257 520.952 60.0977 523.23 60.0977C525.411 60.0977 527.348 59.6257 529.041 58.6816C530.734 57.7376 532.15 56.3379 533.289 54.4824C534.461 52.627 535.34 50.3646 535.926 47.6953C536.544 44.9935 536.854 41.901 536.854 38.418ZM580.262 1.40625V72.5H563.123V1.40625H580.262ZM622.693 1.40625L595.154 37.4414L579.041 55.0684L575.916 39.3457L586.219 23.7207L601.551 1.40625H622.693ZM602.43 72.5L584.07 40.4688L597.4 30.6543L622.693 72.5H602.43ZM635.584 1.40625H649.549L665.418 50.8691L681.287 1.40625H695.252L671.082 72.5H659.754L635.584 1.40625ZM627.088 1.40625H641.541L644.227 55.8984V72.5H627.088V1.40625ZM689.295 1.40625H703.797V72.5H686.609V55.8984L689.295 1.40625ZM732.996 1.40625V72.5H715.906V1.40625H732.996ZM804.432 1.40625V72.5H787.342L762.195 28.2617V72.5H745.057V1.40625H762.195L787.342 45.6445V1.40625H804.432Z" fill="#B6CDFF" fill-opacity="0.3"/>
</svg>
