<svg width="37" height="16" viewBox="0 0 37 16" fill="none" xmlns="http://www.w3.org/2000/svg">
<path d="M1.79279 5.83947L3.92437 2.69855C5.51261 0.358294 8.08762 0.358294 9.67578 2.69855L14.7949 10.2418L12.6634 13.3827C11.0751 15.723 8.50017 15.723 6.91193 13.3827L1.79279 5.83947Z" fill="#8D9DB0"/>
<path d="M1.79505 5.83398L0.501423 7.7402C0.713973 7.47668 1.11372 7.11086 1.71042 7.081C2.52287 7.04025 3.0241 7.65633 3.07963 7.72702L3.07971 7.72694L1.79505 5.83398Z" fill="#8D9DB0"/>
<path d="M29.832 10.0725C31.0933 8.55477 31.3436 8.19006 31.3144 8.16306C31.2695 8.12168 30.687 8.98564 29.9044 8.9985C29.3358 9.00788 28.8628 8.56446 28.5476 8.17958L28.5476 8.17966L29.832 10.0725Z" fill="#8D9DB0"/>
<path d="M17.1171 6.08508L19.2486 2.94416C20.8369 0.6039 23.4119 0.6039 25.0001 2.94416L30.1192 10.4874L27.9877 13.6283C26.3994 15.9686 23.8244 15.9686 22.2362 13.6283L17.1171 6.08508Z" fill="#8D9DB0"/>
<path d="M17.3107 6.3623C16.2912 7.86513 16.0339 8.27456 16.0494 8.28584C16.0745 8.3041 16.6613 7.15923 17.3422 7.21371C17.8792 7.25668 18.4534 8.04415 18.4842 8.08728C18.533 8.15542 18.5704 8.21475 18.5958 8.25701L18.5959 8.25693L17.3107 6.3623Z" fill="#8D9DB0"/>
<path d="M14.6038 9.96672C15.6234 8.46388 15.8807 8.05446 15.8652 8.04319C15.84 8.02492 15.2533 9.16979 14.5724 9.11531C14.0354 9.07234 13.4612 8.28487 13.4303 8.24174C13.3816 8.1736 13.3442 8.11427 13.3188 8.07202L13.3187 8.07209L14.6038 9.96672Z" fill="#8D9DB0"/>
<path d="M17.3721 6.27573L14.7559 10.299L14.5009 10.1081L17.1171 6.08496L17.3721 6.27573Z" fill="#8D9DB0"/>
<path d="M36.207 1.17529C34.1777 4.27944 32.1484 7.3835 30.1191 10.4876C30.0234 10.3466 29.9277 10.2056 29.832 10.0646C30.8281 8.73813 31.824 7.41178 32.8201 6.08534C33.9491 4.44869 35.078 2.81195 36.207 1.17529Z" fill="#8D9DB0"/>
</svg>
