<svg width="14" height="14" viewBox="0 0 40 40" fill="none" xmlns="http://www.w3.org/2000/svg">
<path d="M19.0948 13.4503L5.81985 27.3828C5.59824 27.6152 5.47461 27.9241 5.47461 28.2453C5.47461 28.5664 5.59824 28.8753 5.81985 29.1077L5.83485 29.1228C5.94228 29.2358 6.0716 29.3259 6.21493 29.3874C6.35826 29.449 6.51261 29.4807 6.6686 29.4807C6.82458 29.4807 6.97893 29.449 7.12227 29.3874C7.2656 29.3259 7.39491 29.2358 7.50235 29.1228L20.0023 16.0028L32.4973 29.1228C32.6048 29.2358 32.7341 29.3259 32.8774 29.3874C33.0208 29.449 33.1751 29.4807 33.3311 29.4807C33.4871 29.4807 33.6414 29.449 33.7848 29.3874C33.9281 29.3259 34.0574 29.2358 34.1648 29.1228L34.1798 29.1077C34.4015 28.8753 34.5251 28.5664 34.5251 28.2453C34.5251 27.9241 34.4015 27.6152 34.1798 27.3828L20.9048 13.4503C20.7881 13.3277 20.6477 13.2302 20.4921 13.1635C20.3366 13.0969 20.1691 13.0625 19.9998 13.0625C19.8306 13.0625 19.6631 13.0969 19.5076 13.1635C19.352 13.2302 19.2116 13.3277 19.0948 13.4503Z" fill="black"/>
</svg>
